<!--
  The Claim Audit Table Structure
  Book: Madison Plus One
  Chapter: 01-the-fluency-trap
  Figure 03
  Type: structural schematic
  Generated 2026-06-15
  Source: pantry/01-the-fluency-trap-cajal.md
-->
<svg viewBox="0 0 700 420" xmlns="http://www.w3.org/2000/svg" role="img" aria-labelledby="fig-title-03">
  <title id="fig-title-03">The Claim Audit Table Structure</title>
  <desc>A seven-column audit table template with a header row and empty body rows. Columns left to right: Claim, Type, Source, Evidence Status, Risk, Rewrite, and Owner. The Owner column is emphasized because attaching a named person is what changes behavior.</desc>
  <metadata><cajal:figure xmlns:cajal="https://bearbrown.ai/cajal/1.0" book="Madison Plus One" book-slug="madison" chapter="01-the-fluency-trap" figure-number="03" figure-title="The Claim Audit Table Structure" figure-slug="the-claim-audit-table-structure" figure-type="structural schematic" priority="Important" author="Humanitarians AI Incorporated" date-generated="2026-06-15" source-file="pantry/01-the-fluency-trap-cajal.md"/></metadata>
  <defs>
    <marker id="arrow" markerWidth="8" markerHeight="6" refX="7" refY="3" orient="auto"><polygon points="0 0, 8 3, 0 6" fill="#2a1a0e"/></marker>
  </defs>

  <rect x="0" y="0" width="700" height="420" fill="#FFFFFF"/>
  <text x="32" y="44" font-family="'EB Garamond','Garamond',Georgia,serif" font-size="14" fill="#2a1a0e">The claim audit table</text>

  <!-- Table: 7 columns. x from 32 to 668 (width 636). Owner column wider/emphasized. -->
  <!-- Column boundaries: 32, 130, 200, 290, 400, 470, 560, 668 -->
  <!-- Header row y 80-116 -->
  <g font-family="'Inter',-apple-system,'Helvetica Neue',sans-serif" font-size="11">
    <!-- header cells -->
    <rect x="32" y="80" width="98" height="36" fill="#F5F5F5" stroke="#2a1a0e" stroke-width="1"/>
    <text x="81" y="103" text-anchor="middle" fill="#2a1a0e">Claim</text>
    <rect x="130" y="80" width="70" height="36" fill="#F5F5F5" stroke="#2a1a0e" stroke-width="1"/>
    <text x="165" y="103" text-anchor="middle" fill="#2a1a0e">Type</text>
    <rect x="200" y="80" width="90" height="36" fill="#F5F5F5" stroke="#2a1a0e" stroke-width="1"/>
    <text x="245" y="103" text-anchor="middle" fill="#2a1a0e">Source</text>
    <rect x="290" y="80" width="110" height="36" fill="#F5F5F5" stroke="#2a1a0e" stroke-width="1"/>
    <text x="345" y="103" text-anchor="middle" fill="#2a1a0e">Evidence status</text>
    <rect x="400" y="80" width="70" height="36" fill="#F5F5F5" stroke="#2a1a0e" stroke-width="1"/>
    <text x="435" y="103" text-anchor="middle" fill="#2a1a0e">Risk</text>
    <rect x="470" y="80" width="90" height="36" fill="#F5F5F5" stroke="#2a1a0e" stroke-width="1"/>
    <text x="515" y="103" text-anchor="middle" fill="#2a1a0e">Rewrite</text>
    <rect x="560" y="80" width="108" height="36" fill="#C8102E" stroke="#2a1a0e" stroke-width="1"/>
    <text x="614" y="103" text-anchor="middle" fill="#FFFFFF" font-weight="bold">Owner</text>
  </g>

  <!-- Body rows -->
  <g stroke="#D4D4D4" stroke-width="1" fill="#FFFFFF">
    <!-- row 1 -->
    <rect x="32" y="116" width="98" height="44"/>
    <rect x="130" y="116" width="70" height="44"/>
    <rect x="200" y="116" width="90" height="44"/>
    <rect x="290" y="116" width="110" height="44"/>
    <rect x="400" y="116" width="70" height="44"/>
    <rect x="470" y="116" width="90" height="44"/>
    <!-- row 2 -->
    <rect x="32" y="160" width="98" height="44"/>
    <rect x="130" y="160" width="70" height="44"/>
    <rect x="200" y="160" width="90" height="44"/>
    <rect x="290" y="160" width="110" height="44"/>
    <rect x="400" y="160" width="70" height="44"/>
    <rect x="470" y="160" width="90" height="44"/>
    <!-- row 3 -->
    <rect x="32" y="204" width="98" height="44"/>
    <rect x="130" y="204" width="70" height="44"/>
    <rect x="200" y="204" width="90" height="44"/>
    <rect x="290" y="204" width="110" height="44"/>
    <rect x="400" y="204" width="70" height="44"/>
    <rect x="470" y="204" width="90" height="44"/>
    <!-- row 4 -->
    <rect x="32" y="248" width="98" height="44"/>
    <rect x="130" y="248" width="70" height="44"/>
    <rect x="200" y="248" width="90" height="44"/>
    <rect x="290" y="248" width="110" height="44"/>
    <rect x="400" y="248" width="70" height="44"/>
    <rect x="470" y="248" width="90" height="44"/>
  </g>

  <!-- Owner column body cells emphasized -->
  <g stroke="#2a1a0e" stroke-width="1.5" fill="#FFFFFF">
    <rect x="560" y="116" width="108" height="44"/>
    <rect x="560" y="160" width="108" height="44"/>
    <rect x="560" y="204" width="108" height="44"/>
    <rect x="560" y="248" width="108" height="44"/>
  </g>

  <line x1="614" y1="300" x2="614" y2="328" stroke="#2a1a0e" stroke-width="1.5" marker-end="url(#arrow)" transform="rotate(180 614 314)"/>
  <text x="614" y="350" text-anchor="middle" font-family="'Inter',-apple-system,'Helvetica Neue',sans-serif" font-size="11" fill="#545454">a named owner</text>
  <text x="614" y="366" text-anchor="middle" font-family="'Inter',-apple-system,'Helvetica Neue',sans-serif" font-size="11" fill="#545454">changes behavior</text>
</svg>
