<!--
  The KPI Map Structure (Core Columns)
  Book: Madison Plus One
  Chapter: 08-measurement-plan-and-kpi-map
  Figure 03
  Type: structural schematic
  Generated 2026-06-15
  Source: pantry/08-measurement-plan-and-kpi-map-cajal.md
-->
<svg viewBox="0 0 700 420" xmlns="http://www.w3.org/2000/svg" role="img" aria-labelledby="fig-title-03">
  <title id="fig-title-03">The KPI Map Structure — Core Columns</title>
  <desc>An empty seven-column KPI map template: Metric, Definition, Baseline, Target, Cadence, an emphasized Decision Use column, and a Sign-off column accented as the accountability record of who approved the metric before the campaign ran. Body cells are blank so the schematic reads as a reusable template.</desc>
  <metadata><cajal:figure xmlns:cajal="https://bearbrown.ai/cajal/1.0" book="Madison Plus One" book-slug="madison" chapter="08-measurement-plan-and-kpi-map" figure-number="03" figure-title="The KPI Map Structure (Core Columns)" figure-slug="kpi-map-structure-core-columns" figure-type="structural schematic" priority="Important" author="Humanitarians AI Incorporated" date-generated="2026-06-15" source-file="pantry/08-measurement-plan-and-kpi-map-cajal.md"/></metadata>
  <defs>
    <marker id="arrow" markerWidth="8" markerHeight="6" refX="7" refY="3" orient="auto"><polygon points="0 0, 8 3, 0 6" fill="#2a1a0e"/></marker>
  </defs>

  <text x="32" y="40" font-family="'EB Garamond','Garamond',Georgia,serif" font-size="16" fill="#2a1a0e">The KPI Map Structure — Core Columns</text>
  <text x="32" y="60" font-family="'Inter',-apple-system,'Helvetica Neue',sans-serif" font-size="12" fill="#545454">A reusable template. Decision Use turns documentation into decision support; Sign-off records who approved it.</text>

  <!-- 7 cols across 40..660 -->
  <g font-family="'Inter',-apple-system,'Helvetica Neue',sans-serif" font-size="11">
    <rect x="40" y="100" width="88" height="42" fill="#787878" stroke="#2a1a0e" stroke-width="1"/><text x="84" y="126" fill="#FFFFFF" text-anchor="middle">Metric</text>
    <rect x="128" y="100" width="88" height="42" fill="#787878" stroke="#2a1a0e" stroke-width="1"/><text x="172" y="126" fill="#FFFFFF" text-anchor="middle">Definition</text>
    <rect x="216" y="100" width="88" height="42" fill="#787878" stroke="#2a1a0e" stroke-width="1"/><text x="260" y="126" fill="#FFFFFF" text-anchor="middle">Baseline</text>
    <rect x="304" y="100" width="88" height="42" fill="#787878" stroke="#2a1a0e" stroke-width="1"/><text x="348" y="126" fill="#FFFFFF" text-anchor="middle">Target</text>
    <rect x="392" y="100" width="88" height="42" fill="#787878" stroke="#2a1a0e" stroke-width="1"/><text x="436" y="126" fill="#FFFFFF" text-anchor="middle">Cadence</text>
    <!-- Decision Use emphasized -->
    <rect x="480" y="100" width="92" height="42" fill="#C8102E" stroke="#2a1a0e" stroke-width="1.5"/><text x="526" y="120" fill="#FFFFFF" text-anchor="middle">Decision</text><text x="526" y="134" fill="#FFFFFF" text-anchor="middle">Use</text>
    <!-- Sign-off accented -->
    <rect x="572" y="100" width="88" height="42" fill="#C8860E" stroke="#2a1a0e" stroke-width="1"/><text x="616" y="126" fill="#FFFFFF" text-anchor="middle">Sign-off</text>
  </g>

  <!-- empty body rows -->
  <g stroke="#D4D4D4" stroke-width="1" fill="#FFFFFF">
    <rect x="40" y="142" width="88" height="48"/><rect x="128" y="142" width="88" height="48"/><rect x="216" y="142" width="88" height="48"/><rect x="304" y="142" width="88" height="48"/><rect x="392" y="142" width="88" height="48"/><rect x="480" y="142" width="92" height="48"/><rect x="572" y="142" width="88" height="48"/>
    <rect x="40" y="190" width="88" height="48"/><rect x="128" y="190" width="88" height="48"/><rect x="216" y="190" width="88" height="48"/><rect x="304" y="190" width="88" height="48"/><rect x="392" y="190" width="88" height="48"/><rect x="480" y="190" width="92" height="48"/><rect x="572" y="190" width="88" height="48"/>
    <rect x="40" y="238" width="88" height="48"/><rect x="128" y="238" width="88" height="48"/><rect x="216" y="238" width="88" height="48"/><rect x="304" y="238" width="88" height="48"/><rect x="392" y="238" width="88" height="48"/><rect x="480" y="238" width="92" height="48"/><rect x="572" y="238" width="88" height="48"/>
    <rect x="40" y="286" width="88" height="48"/><rect x="128" y="286" width="88" height="48"/><rect x="216" y="286" width="88" height="48"/><rect x="304" y="286" width="88" height="48"/><rect x="392" y="286" width="88" height="48"/><rect x="480" y="286" width="92" height="48"/><rect x="572" y="286" width="88" height="48"/>
  </g>

  <text x="40" y="364" font-family="'Inter',-apple-system,'Helvetica Neue',sans-serif" font-size="11" font-style="italic" fill="#545454">The live map also carries Objective, Source, and Owner columns.</text>
</svg>
